<?xml version="1.0" encoding="UTF-8" standalone="no"?>

<svg version="1.1" id="svg1" viewBox="0 0 256 256" sodipodi:docname="tierraymesa.svg" xmlns:sodipodi="http://sodipodi.sourceforge.net/DTD/sodipodi-0.dtd"
   xmlns="http://www.w3.org/2000/svg" xmlns:svg="http://www.w3.org/2000/svg">
   <defs id="defs1" />
   <sodipodi:namedview id="namedview1" pagecolor="#ffffff" bordercolor="currentColor" borderopacity="0.25" />
   <g id="g1">
      <path style="fill:currentColor;stroke-width:1.44253"
         d="m 118.6649,254.05805 c -21.649355,-7.17563 -32.583872,-34.70487 -22.013553,-54.88184 6.628633,-12.96748 19.932193,-24.13038 35.284983,-22.61268 19.81132,-1.38805 37.97289,15.8597 40.46611,35.08196 3.54907,21.849 -14.92391,44.3722 -37.28761,44.23562 -5.51581,0.27425 -11.19598,0.0251 -16.44993,-1.82306 z M 68.777392,175.7067 C 46.739323,168.24493 35.590473,139.86974 47.088935,119.53218 57.999275,97.388352 89.836428,91.233292 108.71009,106.73146 c 20.21011,14.72951 19.59403,48.38596 -0.59803,62.84562 -10.978358,8.39428 -26.326273,10.90483 -39.334668,6.12962 z m 97.072898,0.55824 c -17.33535,-5.7832 -29.75277,-23.89327 -27.04081,-42.2857 0.46745,-24.67362 28.5274,-42.292184 51.33839,-34.182154 15.8909,5.245214 29.58062,20.789274 27.83844,38.298784 1.69872,18.11071 -12.22192,34.45438 -29.35166,38.58285 -7.41885,1.97689 -15.48401,2.16073 -22.78436,-0.41378 z m -40.8958,-70.45615 C 117.89628,103.39073 124.00741,90.65531 116.1583,91.623758 87.529292,90.971961 59.145415,74.892579 46.607517,48.673619 38.766262,33.890486 37.774994,16.961871 38.150054,0.57401397 55.858233,0.01710066 74.26401,1.8912548 89.547503,11.662282 c 20.282627,11.883684 33.410427,33.477164 37.529267,56.328739 3.67686,8.785988 7.59792,-10.731712 13.01027,-12.321589 15.51239,-4.759622 14.03144,16.510327 5.48282,23.712798 -6.34684,7.907571 -3.71631,20.218166 -11.71336,26.63146 -2.72837,1.60752 -6.23662,1.40606 -8.90201,-0.2049 z"
         id="path1" />
      <rect style="fill:currentColor;stroke-width:0.956244" id="rect1" width="16.814402" height="256.00769" x="239.40506" y="-256.21945"
         transform="scale(1,-1)" />
      <rect style="fill:currentColor;stroke-width:0.956244" id="rect1-4" width="16.814402" height="256.00769" x="0" y="-256.00769" transform="scale(1,-1)" />
   </g>
</svg>