<?xml version="1.0" encoding="UTF-8" standalone="no"?>
<!-- Created with Inkscape (http://www.inkscape.org/) -->

<svg
   version="1.1"
   id="svg1"
   width="256"
   height="256"
   viewBox="0 0 256 256"
   sodipodi:docname="tierraymesa-color-bars.svg"
   inkscape:version="1.4.2 (ebf0e940, 2025-05-08)"
   xmlns:inkscape="http://www.inkscape.org/namespaces/inkscape"
   xmlns:sodipodi="http://sodipodi.sourceforge.net/DTD/sodipodi-0.dtd"
   xmlns="http://www.w3.org/2000/svg"
   xmlns:svg="http://www.w3.org/2000/svg">
  <defs
     id="defs1" />
  <sodipodi:namedview
     id="namedview1"
     pagecolor="#ffffff"
     bordercolor="#000000"
     borderopacity="0.25"
     inkscape:showpageshadow="2"
     inkscape:pageopacity="0.0"
     inkscape:pagecheckerboard="0"
     inkscape:deskcolor="#d1d1d1"
     showgrid="false"
     inkscape:zoom="2.8359376"
     inkscape:cx="55.889805"
     inkscape:cy="109.84022"
     inkscape:window-width="1928"
     inkscape:window-height="1186"
     inkscape:window-x="1529"
     inkscape:window-y="25"
     inkscape:window-maximized="0"
     inkscape:current-layer="g1" />
  <g
     inkscape:groupmode="layer"
     inkscape:label="Image"
     id="g1">
    <path
       style="fill:#4a752c;stroke-width:1.44253;fill-opacity:1"
       d="m 118.6649,254.05805 c -21.649355,-7.17563 -32.583872,-34.70487 -22.013553,-54.88184 6.628633,-12.96748 19.932193,-24.13038 35.284983,-22.61268 19.81132,-1.38805 37.97289,15.8597 40.46611,35.08196 3.54907,21.849 -14.92391,44.3722 -37.28761,44.23562 -5.51581,0.27425 -11.19598,0.0251 -16.44993,-1.82306 z M 68.777392,175.7067 C 46.739323,168.24493 35.590473,139.86974 47.088935,119.53218 57.999275,97.388352 89.836428,91.233292 108.71009,106.73146 c 20.21011,14.72951 19.59403,48.38596 -0.59803,62.84562 -10.978358,8.39428 -26.326273,10.90483 -39.334668,6.12962 z m 97.072898,0.55824 c -17.33535,-5.7832 -29.75277,-23.89327 -27.04081,-42.2857 0.46745,-24.67362 28.5274,-42.292184 51.33839,-34.182154 15.8909,5.245214 29.58062,20.789274 27.83844,38.298784 1.69872,18.11071 -12.22192,34.45438 -29.35166,38.58285 -7.41885,1.97689 -15.48401,2.16073 -22.78436,-0.41378 z m -40.8958,-70.45615 C 117.89628,103.39073 124.00741,90.65531 116.1583,91.623758 87.529292,90.971961 59.145415,74.892579 46.607517,48.673619 38.766262,33.890486 37.774994,16.961871 38.150054,0.57401397 55.858233,0.01710066 74.26401,1.8912548 89.547503,11.662282 c 20.282627,11.883684 33.410427,33.477164 37.529267,56.328739 3.67686,8.785988 7.59792,-10.731712 13.01027,-12.321589 15.51239,-4.759622 14.03144,16.510327 5.48282,23.712798 -6.34684,7.907571 -3.71631,20.218166 -11.71336,26.63146 -2.72837,1.60752 -6.23662,1.40606 -8.90201,-0.2049 z"
       id="path1"
       sodipodi:nodetypes="ccccccccccccccccccccccccccc" />
    <rect
       style="fill:#cc7351;fill-opacity:1;stroke-width:1.0429"
       id="rect1"
       width="20"
       height="256.00769"
       x="236"
       y="-256.21945"
       transform="scale(1,-1)" />
    <rect
       style="fill:#cc7351;fill-opacity:1;stroke-width:1.0429"
       id="rect1-4"
       width="20"
       height="256.00769"
       x="0"
       y="-256.00769"
       transform="scale(1,-1)" />
    <path
       style="fill:#5c2a6b;stroke-width:0.498676;fill-opacity:1"
       d="M 82.656495,97.600212 C 70.54979,97.462197 58.822266,103.1706 51.061679,112.39199 c -4.28827,5.24323 -7.342139,11.64734 -8.678128,18.29517 -1.574586,10.39649 0.676633,21.27347 6.577261,30.01502 9.131743,14.56145 28.257656,21.46908 44.659733,16.58098 13.148135,-3.49588 24.793115,-13.45132 28.580225,-26.76683 5.52461,-16.21275 -0.26214,-35.84335 -14.6859,-45.48261 -7.14274,-5.301131 -16.016819,-7.710269 -24.858375,-7.433508 z"
       id="path2" />
    <path
       style="fill:#5c2a6b;fill-opacity:1;stroke-width:0.352617"
       d="m 177.42768,97.065424 c -17.94575,0.409066 -35.56354,13.699216 -38.86432,31.705926 -0.79805,5.70119 -0.77891,11.52996 -0.32232,17.25757 2.40841,10.89004 9.19919,20.77099 18.68389,26.69697 7.49174,4.9309 16.71134,7.32065 25.63152,5.86014 11.99322,-1.25109 23.37458,-7.77872 30.05997,-17.88215 4.27048,-6.11976 6.39334,-13.54556 6.28633,-20.98796 0.5476,-8.11135 -1.16771,-16.47575 -5.8247,-23.23766 -7.78416,-11.68895 -21.47622,-19.625093 -35.65037,-19.412836 z"
       id="path3" />
    <path
       style="fill:#5c2a6b;fill-opacity:1;stroke-width:0.352617"
       d="m 131.06198,175.72038 c -5.3228,-0.0452 -10.74799,0.5973 -15.49449,3.17975 -7.78725,4.07415 -14.28035,10.61355 -18.602617,18.24518 -2.83465,4.98628 -5.015295,10.51415 -4.818182,16.34504 -0.176668,5.33248 -0.21353,10.7974 1.851929,15.82232 4.155143,12.74709 14.73468,23.56689 28.01653,26.49724 6.66292,1.20921 13.5549,0.92856 20.25206,0.11777 19.81897,-4.1602 34.38921,-25.29391 30.78066,-45.30715 -3.00815,-17.76088 -18.30407,-33.38474 -36.57267,-34.81126 -1.80207,-0.10665 -3.6087,-0.11561 -5.41322,-0.0889 z"
       id="path4" />
  </g>
</svg>
