<svg xmlns="http://www.w3.org/2000/svg" style="display: none;">

    <symbol id="close" viewBox="0 0 24 24" fill="none">
        <g stroke-width="0"></g>
        <g stroke-linecap="round" stroke-linejoin="round"></g>
        <g>
            <path fill-rule="evenodd" clip-rule="evenodd"
                d="M19.207 6.207a1 1 0 0 0-1.414-1.414L12 10.586 6.207 4.793a1 1 0 0 0-1.414 1.414L10.586 12l-5.793 5.793a1 1 0 1 0 1.414 1.414L12 13.414l5.793 5.793a1 1 0 0 0 1.414-1.414L13.414 12l5.793-5.793z"
                fill="currentColor"></path>
        </g>
    </symbol>

    <symbol id="closeCircle" viewBox="0 0 24 24" fill="none">
        <path
            d="M12 2C6.49 2 2 6.49 2 12C2 17.51 6.49 22 12 22C17.51 22 22 17.51 22 12C22 6.49 17.51 2 12 2ZM15.36 14.3C15.65 14.59 15.65 15.07 15.36 15.36C15.21 15.51 15.02 15.58 14.83 15.58C14.64 15.58 14.45 15.51 14.3 15.36L12 13.06L9.7 15.36C9.55 15.51 9.36 15.58 9.17 15.58C8.98 15.58 8.79 15.51 8.64 15.36C8.35 15.07 8.35 14.59 8.64 14.3L10.94 12L8.64 9.7C8.35 9.41 8.35 8.93 8.64 8.64C8.93 8.35 9.41 8.35 9.7 8.64L12 10.94L14.3 8.64C14.59 8.35 15.07 8.35 15.36 8.64C15.65 8.93 15.65 9.41 15.36 9.7L13.06 12L15.36 14.3Z"
            fill="currentColor" />
    </symbol>

    <symbol id="menu" viewBox="0 0 24 24" fill="none">
        <g stroke-width="0"></g>
        <g stroke-linecap="round" stroke-linejoin="round"></g>
        <g>
            <path d="M4 6H20M4 12H20M4 18H20" stroke="currentColor" stroke-width="2" stroke-linecap="round" stroke-linejoin="round"></path>
        </g>
    </symbol>

    <symbol id="chevron" viewBox="0 0 24 24" fill="none">
        <path d="M9 6L15 12L9 18" stroke="currentColor" stroke-width="2" stroke-linecap="round" stroke-linejoin="round" />
    </symbol>

    <symbol id="filter" viewBox="0 0 24 24" fill="none">
        <path d="M4 4L9 12V18L15 21V12L20 4H4Z" stroke="currentColor" stroke-width="1.5" stroke-linecap="round" stroke-linejoin="round" />
    </symbol>

    <symbol id="mapPoint" viewBox="0 0 512 512" fill="currentColor">
        <g>
            <g>
                <path d="M360.439,57.731c-22.739,0-41.239,18.5-41.239,41.239s18.5,41.239,41.239,41.239s41.239-18.5,41.239-41.239
			S383.178,57.731,360.439,57.731z M360.439,109.792c-5.967,0-10.821-4.855-10.821-10.821s4.855-10.821,10.821-10.821
			s10.821,4.855,10.821,10.821C371.26,104.937,366.406,109.792,360.439,109.792z" />
            </g>
        </g>
        <g>
            <g>
                <path d="M436.999,131.423c3.01-10.952,4.55-21.82,4.55-32.453c0-44.724-36.386-81.111-81.111-81.111s-81.111,36.386-81.111,81.111
			c0,10.633,1.54,21.501,4.55,32.453H0v362.717h512V131.423H436.999z M413.098,181.64c0.323-0.477,0.649-0.954,0.967-1.431
			c0.423-0.632,0.842-1.27,1.26-1.911c0.213-0.327,0.427-0.655,0.638-0.982c0.504-0.781,1.004-1.569,1.501-2.363
			c0.064-0.102,0.127-0.204,0.19-0.306c2.552-4.096,5.018-8.363,7.324-12.806h56.603v151.212l-97.046-97.046
			c4.656-4.663,10.055-10.452,15.638-17.197c0.156-0.189,0.311-0.374,0.468-0.565c0.37-0.45,0.741-0.906,1.113-1.366
			c0.32-0.395,0.642-0.795,0.963-1.196c0.306-0.382,0.611-0.763,0.919-1.152c0.6-0.76,1.201-1.528,1.803-2.309
			c0.02-0.025,0.039-0.052,0.058-0.077c0.336-0.436,0.669-0.884,1.005-1.326c0.421-0.555,0.844-1.109,1.256-1.665
			c0.252-0.339,0.503-0.687,0.754-1.03c0.481-0.654,0.961-1.308,1.432-1.963c0.285-0.396,0.567-0.801,0.851-1.201
			c0.421-0.595,0.843-1.19,1.255-1.785C412.401,182.667,412.75,182.153,413.098,181.64z M481.582,356.069v27.963L348.493,250.941
			l13.981-13.981L481.582,356.069z M360.439,48.277c27.952,0,50.693,22.741,50.693,50.693c0,14.642-3.855,28.691-9.603,41.518
			c-1.341,2.996-2.79,5.921-4.313,8.775c-0.16,0.299-0.321,0.597-0.483,0.894c-0.613,1.132-1.24,2.25-1.877,3.356
			c-0.159,0.277-0.316,0.558-0.477,0.833c-0.767,1.315-1.546,2.613-2.339,3.889c-0.169,0.273-0.343,0.537-0.513,0.808
			c-0.611,0.972-1.228,1.934-1.851,2.883c-0.317,0.484-0.638,0.963-0.958,1.441c-0.49,0.731-0.982,1.452-1.478,2.168
			c-0.349,0.504-0.696,1.011-1.046,1.507c-0.559,0.791-1.12,1.565-1.682,2.336c-0.623,0.854-1.246,1.693-1.873,2.523
			c-0.355,0.47-0.71,0.943-1.065,1.406c-0.497,0.647-0.993,1.283-1.489,1.913c-0.288,0.366-0.575,0.727-0.862,1.087
			c-0.534,0.67-1.07,1.339-1.602,1.99c-0.046,0.056-0.091,0.109-0.137,0.165c-1.303,1.591-2.597,3.122-3.872,4.593
			c-0.07,0.08-0.14,0.163-0.21,0.244c-0.618,0.712-1.232,1.406-1.84,2.089c-0.109,0.123-0.218,0.244-0.328,0.366
			c-2.603,2.907-5.097,5.54-7.39,7.866c-0.029,0.029-0.059,0.059-0.087,0.089c-1.161,1.176-2.27,2.275-3.315,3.29
			c-8.915-8.656-22.454-23.318-33.3-41.568c-0.134-0.226-0.272-0.446-0.405-0.674c-0.365-0.622-0.721-1.256-1.079-1.886
			c-0.444-0.782-0.886-1.568-1.319-2.362c-0.259-0.474-0.516-0.949-0.771-1.427c-0.659-1.241-1.308-2.491-1.937-3.76
			c-0.042-0.084-0.085-0.167-0.128-0.252c-0.741-1.505-1.458-3.031-2.149-4.573c-5.752-12.831-9.609-26.885-9.609-41.531
			C309.746,71.018,332.487,48.277,360.439,48.277z M295.9,161.84c2.308,4.443,4.773,8.709,7.324,12.806
			c0.064,0.102,0.127,0.204,0.19,0.306c0.497,0.795,0.997,1.583,1.501,2.363c0.211,0.328,0.424,0.655,0.638,0.982
			c0.419,0.641,0.837,1.28,1.26,1.911c0.318,0.478,0.644,0.954,0.967,1.431c0.349,0.513,0.698,1.028,1.048,1.534
			c0.413,0.596,0.834,1.191,1.255,1.786c0.284,0.401,0.566,0.805,0.851,1.201c0.47,0.655,0.951,1.309,1.432,1.963
			c0.251,0.343,0.503,0.69,0.754,1.03c0.413,0.556,0.835,1.11,1.256,1.665c0.335,0.442,0.669,0.89,1.005,1.326
			c0.019,0.025,0.039,0.052,0.058,0.077c0.601,0.781,1.203,1.549,1.803,2.309c0.306,0.388,0.612,0.769,0.919,1.152
			c0.321,0.401,0.642,0.801,0.963,1.196c0.372,0.458,0.742,0.916,1.113,1.366c0.156,0.191,0.312,0.376,0.468,0.565
			c6.42,7.756,12.599,14.25,17.683,19.223L223.251,333.167L118.413,228.328l66.488-66.488H295.9z M141.886,161.84l-44.98,44.98
			l-44.981-44.98H141.886z M30.417,463.724v-91.047c47.038,6.702,84.344,44.008,91.046,91.047H30.417z M152.119,463.723
			c-7.043-63.832-57.87-114.659-121.701-121.702v-20.386c75.023,7.198,134.891,67.065,142.088,142.088H152.119z M203.042,463.723
			c-7.367-91.808-80.817-165.258-172.625-172.625v-107.75l280.374,280.375H203.042z M481.583,463.723H353.807L244.759,354.675
			l82.226-82.226l154.598,154.598V463.723z" />
            </g>
        </g>
    </symbol>

    <symbol id="info" viewBox="0 0 1024 1024">
        <path fill="currentColor"
            d="M512 64a448 448 0 1 1 0 896.064A448 448 0 0 1 512 64zm67.2 275.072c33.28 0 60.288-23.104 60.288-57.344s-27.072-57.344-60.288-57.344c-33.28 0-60.16 23.104-60.16 57.344s26.88 57.344 60.16 57.344zM590.912 699.2c0-6.848 2.368-24.64 1.024-34.752l-52.608 60.544c-10.88 11.456-24.512 19.392-30.912 17.28a12.992 12.992 0 0 1-8.256-14.72l87.68-276.992c7.168-35.136-12.544-67.2-54.336-71.296-44.096 0-108.992 44.736-148.48 101.504 0 6.784-1.28 23.68.064 33.792l52.544-60.608c10.88-11.328 23.552-19.328 29.952-17.152a12.8 12.8 0 0 1 7.808 16.128L388.48 728.576c-10.048 32.256 8.96 63.872 55.04 71.04 67.84 0 107.904-43.648 147.456-100.416z" />
    </symbol>

    <symbol id="region" viewBox="0 0 24 24" fill="none">
        <path d="M18 16.0156C19.2447 16.5445 20 17.2392 20 18C20 19.6568 16.4183 21 12 21C7.58172 21 4 19.6568 4 18C4 17.2392 4.75527 16.5445 6 16.0156"
            stroke="currentColor" stroke-linecap="round" stroke-linejoin="round" stroke-width="2" />
        <path d="M17 8.44444C17 11.5372 12 17 12 17C12 17 7 11.5372 7 8.44444C7 5.35165 9.23858 3 12 3C14.7614 3 17 5.35165 17 8.44444Z" stroke="currentColor"
            stroke-linecap="round" stroke-linejoin="round" stroke-width="2" />
        <circle cx="12" cy="8" r="1" stroke="currentColor" stroke-linecap="round" stroke-linejoin="round" stroke-width="2" />
    </symbol>

    <symbol id="experience" fill="currentColor" viewBox="0 0 435.801 435.801">
        <g>
            <g>
                <path d="M1.819,396.259c-4.06,7.729-1.097,17.28,6.629,21.337c7.718,4.073,17.275,1.092,21.337-6.632
			c0.15-0.284,29.592-28.584,176.287-28.584c158.87,0,202.337,39.903,202.525,40.07c3.107,3.23,7.251,4.855,11.4,4.855
			c3.936,0,7.876-1.458,10.942-4.398c6.297-6.053,6.5-16.046,0.468-22.343c-2.514-2.615-16.377-15.625-52.496-27.705
			c3.26-3.275,5.275-7.795,5.275-12.786v-85.255c0,0,6.439,0,14.371,0c7.937,0,9.282-6.332,3.001-14.147l-74.981-93.36
			c-6.261-7.815-16.366-7.76-22.551,0.124l-3.352,4.275c6.835,5.467,9.653,14.584,6.962,22.966
			c-2.768,8.627-10.705,14.528-19.759,14.7l-1.519,0.033l45.52,49.84c5.651,6.201,7.114,15.153,3.732,22.826
			c-3.393,7.668-10.999,12.629-19.373,12.629h-54.867v57.782c-2.986-0.188-5.977-0.381-9.074-0.538v-66.248h63.941
			c4.794,0,9.13-2.828,11.07-7.215c1.935-4.393,1.102-9.501-2.144-13.041l-59.021-64.655l21.561-0.401
			c5.175-0.104,9.715-3.479,11.288-8.399c1.585-4.931-0.137-10.318-4.29-13.398l-26.056-19.388h2.712c0.021,0,0.046,0,0.061,0
			c6.449,0.081,12.162-5.396,12.162-12.093c0-3.177-1.219-6.068-3.225-8.224l-30.361-42.559h2.981c0.02,0,0.035,0,0.061,0
			c6.642-0.229,12.156-5.403,12.156-12.096c0-3.293-1.314-6.279-3.447-8.467l-47.37-62.467c-2.323-3.072-5.736-5.007-9.836-4.786
			c-3.857,0.063-7.45,1.96-9.679,5.111l-43.701,61.778c-2.615,3.689-2.94,8.531-0.871,12.545c1.818,3.507,5.208,5.878,9.054,6.414
			l-32.39,44.935c-2.252,3.121-2.75,7.056-1.627,10.659c5.57,1.074,10.745,4.03,14.812,8.516l3.176,3.808l33.33,41.498l6.177-8.231
			c2.75-3.659,3.184-8.572,1.138-12.665c-2.044-4.101-6.233-6.69-10.813-6.69h-9.859l19-21.899c3.103-3.58,3.832-8.643,1.864-12.949
			c-1.968-4.311-6.264-7.071-11.004-7.071h-12.743L192.7,89.463c2.661-3.682,3.023-8.546,0.954-12.583
			c-1.84-3.603-5.347-6.012-9.305-6.495l20.721-29.292l23.544,31.055h-2.118c-4.534,0-8.683,2.526-10.752,6.556
			c-2.077,4.029-1.721,8.874,0.909,12.562l31.211,43.757h-15.747c-5.209,0-9.841,3.341-11.476,8.294
			c-1.643,4.954,0.079,10.397,4.261,13.518l26.953,20.051l-12.902,0.244c-4.754,0.089-9.014,2.948-10.888,7.317
			c-1.868,4.367-1.025,9.425,2.174,12.939l58.563,64.149h-48.616c-6.683,0-12.096,5.419-12.096,12.096v77.465
			c-5.926-0.143-11.992-0.229-18.248-0.254v-64.587c-1.856,0.487-3.832,0.772-5.949,0.772h-2.275v63.814
			c-3.026,0.01-6.053,0.025-8.99,0.056V274.86c0,0,6.431,0,14.371,0c7.929,0,9.272-6.332,3.001-14.143l-74.986-93.399
			c-6.274-7.823-16.376-7.756-22.556,0.127l-73.06,93.11c-6.178,7.881-4.771,14.274,3.168,14.274H56.93v85.244
			c0,1.792,0.34,3.488,0.82,5.118C16.781,376.074,5.043,390.14,1.819,396.259z M130.297,275.834h21.858v32.113h-21.858V275.834z
			 M130.297,322.237h21.858v29.925c-7.678,0.427-14.937,0.935-21.858,1.508V322.237z M94.162,275.834h21.861v32.113H94.162V275.834z
			 M94.162,322.237h21.861v32.113H94.162V322.237z" />
            </g>
        </g>
    </symbol>

    <symbol id="burger" viewBox="0 0 24 24" fill="none">
        <path d="M5 12H20" stroke="currentColor" stroke-width="2" stroke-linecap="round" />
        <path d="M5 17H20" stroke="currentColor" stroke-width="2" stroke-linecap="round" />
        <path d="M5 7H20" stroke="currentColor" stroke-width="2" stroke-linecap="round" />
    </symbol>

    <symbol id="theme" viewBox="0 0 48 48">
        <g>
            <g>
                <g>
                    <rect fill="none" />
                    <g>
                        <path d="M14,24A10,10,0,0,0,24,34V14A10,10,0,0,0,14,24Z" fill="currentColor" />
                        <path d="M24,2A22,22,0,1,0,46,24,21.9,21.9,0,0,0,24,2ZM6,24A18.1,18.1,0,0,1,24,6v8a10,10,0,0,1,0,20v8A18.1,18.1,0,0,1,6,24Z"
                            fill="currentColor" />
                    </g>
                </g>
            </g>
        </g>
    </symbol>

    <symbol id="degustacion" fill="currentColor" viewBox="0 0 512 512">
        <g>
            <g>
                <path d="M511.869,340.119c-5.166-56.64-34.346-109.06-82.164-147.606c-38.427-30.976-86.184-50.68-137.235-57.06
                    c6.326-12.285,9.623-26.108,9.623-35.809c0-25.417-20.677-46.093-46.093-46.093c-25.417,0-46.093,20.677-46.093,46.093
                    c0,9.701,3.297,23.524,9.623,35.809c-51.051,6.38-98.808,26.083-137.235,57.06C34.478,231.06,5.299,283.48,0.131,340.119
                    c-0.815,8.942,2.19,17.877,8.242,24.514c3.851,4.222,8.736,7.297,14.087,8.982l9.911,49.554
                    c4.091,20.444,22.19,35.281,43.038,35.281h361.185c20.848,0,38.946-14.838,43.036-35.281l9.911-49.549
                    c5.357-1.683,10.245-4.755,14.094-8.974C509.682,358.012,512.685,349.072,511.869,340.119z M256.001,87.105
                    c6.915,0,12.54,5.625,12.54,12.54c0,9.808-7.448,25.73-12.54,29.575c-5.092-3.845-12.54-19.768-12.54-29.575
                    C243.461,92.73,249.085,87.105,256.001,87.105z M446.727,416.588c-0.962,4.815-5.225,8.31-10.135,8.31H75.408
                    c-4.91,0-9.172-3.495-10.135-8.309L56.975,375.1h398.05L446.727,416.588z M33.703,341.547
                    c9.941-98.152,107.216-174.808,222.297-174.808c115.089,0,212.368,76.648,222.299,174.808
                    C462.797,341.547,62.941,341.547,33.703,341.547z"/>
            </g>
        </g>
    </symbol>

    <symbol id="cata" viewBox="0 0 24 24" fill="none">
        <path fill-rule="evenodd" clip-rule="evenodd" d="M4.53864 2.7246C4.66153 2.29564 5.05375 2 5.49997 2H18.5C18.9462 2 19.3384 2.29564 19.4613 2.7246C19.5292 2.96368 19.5947 3.20341 19.6592 3.44343C19.7787 3.88864 19.9411 4.51138 20.1128 5.22261C20.4533 6.63288 20.8417 8.43631 20.9945 9.89583C21.0425 10.3538 21.0746 10.8465 21.0951 11.3478C21.2506 15.1479 18.0345 18 14.3858 18H13V21H16C16.5523 21 17 21.4477 17 22C17 22.5523 16.5523 23 16 23H7.99997C7.44769 23 6.99997 22.5523 6.99997 22C6.99997 21.4477 7.44769 21 7.99997 21H11V18H9.61415C5.96546 18 2.74934 15.1479 2.90487 11.3478C2.92539 10.8465 2.95745 10.3538 3.00542 9.89583C3.15828 8.43631 3.54663 6.63288 3.88711 5.22261C4.05883 4.51138 4.22122 3.88864 4.34076 3.44343C4.4052 3.20341 4.47076 2.96368 4.53864 2.7246ZM5.83125 5.692C5.99331 5.02077 6.147 4.42997 6.26217 4H17.7378C17.853 4.42997 18.0066 5.02077 18.1687 5.692C18.5054 7.0866 18.8671 8.78317 19.0054 10.1042C19.0478 10.5089 19.0774 10.9576 19.0968 11.4296C19.1996 13.9425 17.0554 16 14.3858 16H9.61415C6.94457 16 4.80035 13.9425 4.9032 11.4296C4.92252 10.9576 4.95215 10.5089 4.99453 10.1042C5.13289 8.78317 5.49455 7.0866 5.83125 5.692ZM16.6347 8.55454C16.9244 8.44087 17.2505 8.46854 17.5169 8.62939C17.7833 8.79027 17.9597 9.06602 17.9939 9.37536L18.1251 10.5597C18.3875 12.9287 16.5329 15 14.1494 15H9.8953C7.49073 15 5.62962 12.8937 5.92574 10.5074L6.00761 9.84773C6.05296 9.48228 6.29549 9.17133 6.63889 9.03835C7.14508 8.84499 7.66155 8.67658 8.18169 8.52525C9.0301 8.27841 10.1866 8 11.1667 8C12.1571 8 12.8717 8.26842 13.5105 8.59224C14.1494 8.91605 14.6242 9.05992 15.1955 8.98042C15.6864 8.91211 16.1737 8.73359 16.6347 8.55454ZM10 12C10 12.5523 9.55228 13 9 13C8.44772 13 8 12.5523 8 12C8 11.4477 8.44772 11 9 11C9.55228 11 10 11.4477 10 12Z" fill="currentColor"/>
    </symbol>

    <symbol id="ruta" viewBox="0 0 512 512">
        <line x1="256" y1="400" x2="256" y2="464" style="fill:none;stroke:#000000;stroke-linecap:round;stroke-linejoin:round;stroke-width:32px"/><line x1="256" y1="208" x2="256" y2="272" style="fill:none;stroke:#000000;stroke-linecap:round;stroke-linejoin:round;stroke-width:32px"/><line x1="256" y1="48" x2="256" y2="80" style="fill:none;stroke:#000000;stroke-linecap:round;stroke-linejoin:round;stroke-width:32px"/><path d="M416,208H102.63a16,16,0,0,1-11.32-4.69L32,144,91.31,84.69A16,16,0,0,1,102.63,80H416a16,16,0,0,1,16,16v96A16,16,0,0,1,416,208Z" style="fill:none;stroke:#000000;stroke-linecap:round;stroke-linejoin:round;stroke-width:32px"/><path d="M96,400H409.37a16,16,0,0,0,11.32-4.69L480,336l-59.31-59.31A16,16,0,0,0,409.37,272H96a16,16,0,0,0-16,16v96A16,16,0,0,0,96,400Z" style="fill:none;stroke:#000000;stroke-linecap:round;stroke-linejoin:round;stroke-width:32px"/>
    </symbol>

    <symbol id="alojamiento" fill="currentColor" viewBox="0 0 512 512">
        <g>
            <g>
                <path d="M30.857,193.93h10.09v0.008v268.495c0,4.372,3.532,7.901,7.899,7.901h372.629c4.367,0,7.901-3.529,7.901-7.901V193.938
                    v-0.008h10.014c4.489,0,8.673-1.785,11.486-4.89c2.569-2.836,3.778-6.472,3.397-10.24L426.706,56.455
                    c-1.052-7.317-8.003-12.972-16.093-12.972l-224.86-0.063V14.371c0-7.924-6.982-14.371-15.58-14.371h-67.552
                    c-8.58,0-15.554,6.446-15.554,14.371v29.112h-25.74c-8.041,0-15.018,5.608-16.156,12.859L16.243,177.767l-0.165,0.947
                    c-0.427,3.791,0.741,7.441,3.293,10.301C22.168,192.135,26.355,193.93,30.857,193.93z M131.03,374.25
                    c0,4.367-3.531,7.896-7.901,7.896h-9.875c-4.367,0-7.898-3.528-7.898-7.896v-44.95c0-4.362,3.532-7.901,7.898-7.901h9.875
                    c4.37,0,7.901,3.539,7.901,7.901V374.25z M131.03,305.605c0,4.367-3.531,7.901-7.901,7.901h-9.875
                    c-4.367,0-7.898-3.534-7.898-7.901v-37.998c0-4.372,3.532-7.901,7.898-7.901h9.875c4.37,0,7.901,3.529,7.901,7.901V305.605z
                    M164.605,374.25c0,4.367-3.532,7.896-7.901,7.896h-9.875c-4.37,0-7.901-3.528-7.901-7.896v-44.95
                    c0-4.362,3.532-7.901,7.901-7.901h9.875c4.369,0,7.901,3.539,7.901,7.901V374.25z M164.605,305.605
                    c0,4.367-3.532,7.901-7.901,7.901h-9.875c-4.37,0-7.901-3.534-7.901-7.901v-37.998c0-4.372,3.532-7.901,7.901-7.901h9.875
                    c4.369,0,7.901,3.529,7.901,7.901V305.605z M229.779,374.25c0,4.367-3.529,7.896-7.898,7.896h-9.875
                    c-4.37,0-7.901-3.528-7.901-7.896v-44.95c0-4.362,3.531-7.901,7.901-7.901h9.875c4.369,0,7.898,3.539,7.898,7.901V374.25z
                    M221.88,313.506h-9.875c-4.37,0-7.901-3.534-7.901-7.901v-37.998c0-4.372,3.531-7.901,7.901-7.901h9.826
                    c4.37,0,7.901,3.529,7.901,7.901v2.021c0,4.367,0.023,11.431,0.03,15.798c0.008,5.992,0.015,14.198,0.015,20.195
                    C229.779,309.972,226.25,313.506,221.88,313.506z M263.357,374.25c0,4.367-3.534,7.896-7.901,7.896h-9.876
                    c-4.367,0-7.899-3.528-7.899-7.896v-44.95c0-4.362,3.532-7.901,7.899-7.901h9.876c4.367,0,7.901,3.539,7.901,7.901V374.25z
                    M263.357,305.605c0,4.367-3.534,7.901-7.901,7.901h-9.876c-4.367,0-7.899-3.534-7.899-7.901v-37.998
                    c0-4.372,3.532-7.901,7.899-7.901h9.876c4.367,0,7.901,3.529,7.901,7.901V305.605z M328.533,374.25
                    c0,4.367-3.534,7.896-7.901,7.896h-9.876c-4.367,0-7.902-3.528-7.902-7.896v-44.95c0-4.362,3.535-7.901,7.902-7.901h9.876
                    c4.367,0,7.901,3.539,7.901,7.901V374.25z M328.533,305.605c0,4.367-3.534,7.901-7.901,7.901h-9.876
                    c-4.367,0-7.902-3.534-7.902-7.901v-37.998c0-4.372,3.535-7.901,7.902-7.901h9.876c4.367,0,7.901,3.529,7.901,7.901V305.605z
                    M362.103,374.25c0,4.367-3.529,7.896-7.896,7.896h-9.877c-4.367,0-7.901-3.528-7.901-7.896v-44.95
                    c0-4.362,3.534-7.901,7.901-7.901h9.877c4.366,0,7.896,3.539,7.896,7.901V374.25z M362.103,305.605
                    c0,4.367-3.529,7.901-7.896,7.901h-9.877c-4.367,0-7.901-3.534-7.901-7.901v-37.998c0-4.372,3.534-7.901,7.901-7.901h9.877
                    c4.366,0,7.896,3.529,7.896,7.901V305.605z M60.624,59.646l0.048-0.213c0.157-0.071,0.388-0.15,0.655-0.15h25.977
                    c8.579,0,15.572-6.446,15.572-14.371V15.808l67.077,0.071v29.041c0,7.924,6.985,14.371,15.564,14.371h225.102
                    c0.223,0,0.421,0.053,0.563,0.109l26.802,118.739l-405.586-0.025L60.624,59.646z"/>
            </g>
        </g>
    </symbol>

</svg>