<svg xmlns="http://www.w3.org/2000/svg" style="display: none;">

    <symbol id="close" viewBox="0 0 24 24" fill="none">
        <g stroke-width="0"></g>
        <g stroke-linecap="round" stroke-linejoin="round"></g>
        <g>
            <path fill-rule="evenodd" clip-rule="evenodd"
                d="M19.207 6.207a1 1 0 0 0-1.414-1.414L12 10.586 6.207 4.793a1 1 0 0 0-1.414 1.414L10.586 12l-5.793 5.793a1 1 0 1 0 1.414 1.414L12 13.414l5.793 5.793a1 1 0 0 0 1.414-1.414L13.414 12l5.793-5.793z"
                fill="currentColor"></path>
        </g>
    </symbol>

    <symbol id="closeCircle" viewBox="0 0 24 24" fill="none">
        <path
            d="M12 2C6.49 2 2 6.49 2 12C2 17.51 6.49 22 12 22C17.51 22 22 17.51 22 12C22 6.49 17.51 2 12 2ZM15.36 14.3C15.65 14.59 15.65 15.07 15.36 15.36C15.21 15.51 15.02 15.58 14.83 15.58C14.64 15.58 14.45 15.51 14.3 15.36L12 13.06L9.7 15.36C9.55 15.51 9.36 15.58 9.17 15.58C8.98 15.58 8.79 15.51 8.64 15.36C8.35 15.07 8.35 14.59 8.64 14.3L10.94 12L8.64 9.7C8.35 9.41 8.35 8.93 8.64 8.64C8.93 8.35 9.41 8.35 9.7 8.64L12 10.94L14.3 8.64C14.59 8.35 15.07 8.35 15.36 8.64C15.65 8.93 15.65 9.41 15.36 9.7L13.06 12L15.36 14.3Z"
            fill="currentColor" />
    </symbol>

    <symbol id="menu" viewBox="0 0 24 24" fill="none">
        <g stroke-width="0"></g>
        <g stroke-linecap="round" stroke-linejoin="round"></g>
        <g>
            <path d="M4 6H20M4 12H20M4 18H20" stroke="currentColor" stroke-width="2" stroke-linecap="round" stroke-linejoin="round"></path>
        </g>
    </symbol>

    <symbol id="chevron" viewBox="0 0 24 24" fill="none">
        <path d="M9 6L15 12L9 18" stroke="currentColor" stroke-width="2" stroke-linecap="round" stroke-linejoin="round" />
    </symbol>

    <symbol id="filter" viewBox="0 0 24 24" fill="none">
        <path d="M4 4L9 12V18L15 21V12L20 4H4Z" stroke="currentColor" stroke-width="1.5" stroke-linecap="round" stroke-linejoin="round" />
    </symbol>

    <symbol id="mapPoint" viewBox="0 0 512 512" fill="currentColor">
        <g>
            <g>
                <path d="M360.439,57.731c-22.739,0-41.239,18.5-41.239,41.239s18.5,41.239,41.239,41.239s41.239-18.5,41.239-41.239
			S383.178,57.731,360.439,57.731z M360.439,109.792c-5.967,0-10.821-4.855-10.821-10.821s4.855-10.821,10.821-10.821
			s10.821,4.855,10.821,10.821C371.26,104.937,366.406,109.792,360.439,109.792z" />
            </g>
        </g>
        <g>
            <g>
                <path d="M436.999,131.423c3.01-10.952,4.55-21.82,4.55-32.453c0-44.724-36.386-81.111-81.111-81.111s-81.111,36.386-81.111,81.111
			c0,10.633,1.54,21.501,4.55,32.453H0v362.717h512V131.423H436.999z M413.098,181.64c0.323-0.477,0.649-0.954,0.967-1.431
			c0.423-0.632,0.842-1.27,1.26-1.911c0.213-0.327,0.427-0.655,0.638-0.982c0.504-0.781,1.004-1.569,1.501-2.363
			c0.064-0.102,0.127-0.204,0.19-0.306c2.552-4.096,5.018-8.363,7.324-12.806h56.603v151.212l-97.046-97.046
			c4.656-4.663,10.055-10.452,15.638-17.197c0.156-0.189,0.311-0.374,0.468-0.565c0.37-0.45,0.741-0.906,1.113-1.366
			c0.32-0.395,0.642-0.795,0.963-1.196c0.306-0.382,0.611-0.763,0.919-1.152c0.6-0.76,1.201-1.528,1.803-2.309
			c0.02-0.025,0.039-0.052,0.058-0.077c0.336-0.436,0.669-0.884,1.005-1.326c0.421-0.555,0.844-1.109,1.256-1.665
			c0.252-0.339,0.503-0.687,0.754-1.03c0.481-0.654,0.961-1.308,1.432-1.963c0.285-0.396,0.567-0.801,0.851-1.201
			c0.421-0.595,0.843-1.19,1.255-1.785C412.401,182.667,412.75,182.153,413.098,181.64z M481.582,356.069v27.963L348.493,250.941
			l13.981-13.981L481.582,356.069z M360.439,48.277c27.952,0,50.693,22.741,50.693,50.693c0,14.642-3.855,28.691-9.603,41.518
			c-1.341,2.996-2.79,5.921-4.313,8.775c-0.16,0.299-0.321,0.597-0.483,0.894c-0.613,1.132-1.24,2.25-1.877,3.356
			c-0.159,0.277-0.316,0.558-0.477,0.833c-0.767,1.315-1.546,2.613-2.339,3.889c-0.169,0.273-0.343,0.537-0.513,0.808
			c-0.611,0.972-1.228,1.934-1.851,2.883c-0.317,0.484-0.638,0.963-0.958,1.441c-0.49,0.731-0.982,1.452-1.478,2.168
			c-0.349,0.504-0.696,1.011-1.046,1.507c-0.559,0.791-1.12,1.565-1.682,2.336c-0.623,0.854-1.246,1.693-1.873,2.523
			c-0.355,0.47-0.71,0.943-1.065,1.406c-0.497,0.647-0.993,1.283-1.489,1.913c-0.288,0.366-0.575,0.727-0.862,1.087
			c-0.534,0.67-1.07,1.339-1.602,1.99c-0.046,0.056-0.091,0.109-0.137,0.165c-1.303,1.591-2.597,3.122-3.872,4.593
			c-0.07,0.08-0.14,0.163-0.21,0.244c-0.618,0.712-1.232,1.406-1.84,2.089c-0.109,0.123-0.218,0.244-0.328,0.366
			c-2.603,2.907-5.097,5.54-7.39,7.866c-0.029,0.029-0.059,0.059-0.087,0.089c-1.161,1.176-2.27,2.275-3.315,3.29
			c-8.915-8.656-22.454-23.318-33.3-41.568c-0.134-0.226-0.272-0.446-0.405-0.674c-0.365-0.622-0.721-1.256-1.079-1.886
			c-0.444-0.782-0.886-1.568-1.319-2.362c-0.259-0.474-0.516-0.949-0.771-1.427c-0.659-1.241-1.308-2.491-1.937-3.76
			c-0.042-0.084-0.085-0.167-0.128-0.252c-0.741-1.505-1.458-3.031-2.149-4.573c-5.752-12.831-9.609-26.885-9.609-41.531
			C309.746,71.018,332.487,48.277,360.439,48.277z M295.9,161.84c2.308,4.443,4.773,8.709,7.324,12.806
			c0.064,0.102,0.127,0.204,0.19,0.306c0.497,0.795,0.997,1.583,1.501,2.363c0.211,0.328,0.424,0.655,0.638,0.982
			c0.419,0.641,0.837,1.28,1.26,1.911c0.318,0.478,0.644,0.954,0.967,1.431c0.349,0.513,0.698,1.028,1.048,1.534
			c0.413,0.596,0.834,1.191,1.255,1.786c0.284,0.401,0.566,0.805,0.851,1.201c0.47,0.655,0.951,1.309,1.432,1.963
			c0.251,0.343,0.503,0.69,0.754,1.03c0.413,0.556,0.835,1.11,1.256,1.665c0.335,0.442,0.669,0.89,1.005,1.326
			c0.019,0.025,0.039,0.052,0.058,0.077c0.601,0.781,1.203,1.549,1.803,2.309c0.306,0.388,0.612,0.769,0.919,1.152
			c0.321,0.401,0.642,0.801,0.963,1.196c0.372,0.458,0.742,0.916,1.113,1.366c0.156,0.191,0.312,0.376,0.468,0.565
			c6.42,7.756,12.599,14.25,17.683,19.223L223.251,333.167L118.413,228.328l66.488-66.488H295.9z M141.886,161.84l-44.98,44.98
			l-44.981-44.98H141.886z M30.417,463.724v-91.047c47.038,6.702,84.344,44.008,91.046,91.047H30.417z M152.119,463.723
			c-7.043-63.832-57.87-114.659-121.701-121.702v-20.386c75.023,7.198,134.891,67.065,142.088,142.088H152.119z M203.042,463.723
			c-7.367-91.808-80.817-165.258-172.625-172.625v-107.75l280.374,280.375H203.042z M481.583,463.723H353.807L244.759,354.675
			l82.226-82.226l154.598,154.598V463.723z" />
            </g>
        </g>
    </symbol>

    <symbol id="info" viewBox="0 0 1024 1024">
        <path fill="currentColor"
            d="M512 64a448 448 0 1 1 0 896.064A448 448 0 0 1 512 64zm67.2 275.072c33.28 0 60.288-23.104 60.288-57.344s-27.072-57.344-60.288-57.344c-33.28 0-60.16 23.104-60.16 57.344s26.88 57.344 60.16 57.344zM590.912 699.2c0-6.848 2.368-24.64 1.024-34.752l-52.608 60.544c-10.88 11.456-24.512 19.392-30.912 17.28a12.992 12.992 0 0 1-8.256-14.72l87.68-276.992c7.168-35.136-12.544-67.2-54.336-71.296-44.096 0-108.992 44.736-148.48 101.504 0 6.784-1.28 23.68.064 33.792l52.544-60.608c10.88-11.328 23.552-19.328 29.952-17.152a12.8 12.8 0 0 1 7.808 16.128L388.48 728.576c-10.048 32.256 8.96 63.872 55.04 71.04 67.84 0 107.904-43.648 147.456-100.416z" />
    </symbol>

    <symbol id="region" viewBox="0 0 24 24" fill="none">
        <path d="M18 16.0156C19.2447 16.5445 20 17.2392 20 18C20 19.6568 16.4183 21 12 21C7.58172 21 4 19.6568 4 18C4 17.2392 4.75527 16.5445 6 16.0156"
            stroke="currentColor" stroke-linecap="round" stroke-linejoin="round" stroke-width="2" />
        <path d="M17 8.44444C17 11.5372 12 17 12 17C12 17 7 11.5372 7 8.44444C7 5.35165 9.23858 3 12 3C14.7614 3 17 5.35165 17 8.44444Z" stroke="currentColor"
            stroke-linecap="round" stroke-linejoin="round" stroke-width="2" />
        <circle cx="12" cy="8" r="1" stroke="currentColor" stroke-linecap="round" stroke-linejoin="round" stroke-width="2" />
    </symbol>

    <symbol id="trail" viewBox="0 0 24 24" fill="none">
        <path fill-rule="evenodd" clip-rule="evenodd"
            d="M13 6C14.1046 6 15 5.10457 15 4C15 2.89543 14.1046 2 13 2C11.8955 2 11 2.89543 11 4C11 5.10457 11.8955 6 13 6ZM11.0528 6.60557C11.3841 6.43992 11.7799 6.47097 12.0813 6.68627L13.0813 7.40056C13.3994 7.6278 13.5559 8.01959 13.482 8.40348L12.4332 13.847L16.8321 20.4453C17.1384 20.9048 17.0143 21.5257 16.5547 21.8321C16.0952 22.1384 15.4743 22.0142 15.168 21.5547L10.5416 14.6152L9.72611 13.3919C9.58336 13.1778 9.52866 12.9169 9.57338 12.6634L10.1699 9.28309L8.38464 10.1757L7.81282 13.0334C7.70445 13.575 7.17759 13.9261 6.63604 13.8178C6.09449 13.7094 5.74333 13.1825 5.85169 12.641L6.51947 9.30379C6.58001 9.00123 6.77684 8.74356 7.05282 8.60557L11.0528 6.60557ZM16.6838 12.9487L13.8093 11.9905L14.1909 10.0096L17.3163 11.0513C17.8402 11.226 18.1234 11.7923 17.9487 12.3162C17.7741 12.8402 17.2078 13.1234 16.6838 12.9487ZM6.12844 20.5097L9.39637 14.7001L9.70958 15.1699L10.641 16.5669L7.87159 21.4903C7.60083 21.9716 6.99111 22.1423 6.50976 21.8716C6.0284 21.6008 5.85768 20.9911 6.12844 20.5097Z"
            fill="currentColor" />
    </symbol>

    <symbol id="experience" fill="currentColor" viewBox="0 0 435.801 435.801">
        <g>
            <g>
                <path d="M1.819,396.259c-4.06,7.729-1.097,17.28,6.629,21.337c7.718,4.073,17.275,1.092,21.337-6.632
			c0.15-0.284,29.592-28.584,176.287-28.584c158.87,0,202.337,39.903,202.525,40.07c3.107,3.23,7.251,4.855,11.4,4.855
			c3.936,0,7.876-1.458,10.942-4.398c6.297-6.053,6.5-16.046,0.468-22.343c-2.514-2.615-16.377-15.625-52.496-27.705
			c3.26-3.275,5.275-7.795,5.275-12.786v-85.255c0,0,6.439,0,14.371,0c7.937,0,9.282-6.332,3.001-14.147l-74.981-93.36
			c-6.261-7.815-16.366-7.76-22.551,0.124l-3.352,4.275c6.835,5.467,9.653,14.584,6.962,22.966
			c-2.768,8.627-10.705,14.528-19.759,14.7l-1.519,0.033l45.52,49.84c5.651,6.201,7.114,15.153,3.732,22.826
			c-3.393,7.668-10.999,12.629-19.373,12.629h-54.867v57.782c-2.986-0.188-5.977-0.381-9.074-0.538v-66.248h63.941
			c4.794,0,9.13-2.828,11.07-7.215c1.935-4.393,1.102-9.501-2.144-13.041l-59.021-64.655l21.561-0.401
			c5.175-0.104,9.715-3.479,11.288-8.399c1.585-4.931-0.137-10.318-4.29-13.398l-26.056-19.388h2.712c0.021,0,0.046,0,0.061,0
			c6.449,0.081,12.162-5.396,12.162-12.093c0-3.177-1.219-6.068-3.225-8.224l-30.361-42.559h2.981c0.02,0,0.035,0,0.061,0
			c6.642-0.229,12.156-5.403,12.156-12.096c0-3.293-1.314-6.279-3.447-8.467l-47.37-62.467c-2.323-3.072-5.736-5.007-9.836-4.786
			c-3.857,0.063-7.45,1.96-9.679,5.111l-43.701,61.778c-2.615,3.689-2.94,8.531-0.871,12.545c1.818,3.507,5.208,5.878,9.054,6.414
			l-32.39,44.935c-2.252,3.121-2.75,7.056-1.627,10.659c5.57,1.074,10.745,4.03,14.812,8.516l3.176,3.808l33.33,41.498l6.177-8.231
			c2.75-3.659,3.184-8.572,1.138-12.665c-2.044-4.101-6.233-6.69-10.813-6.69h-9.859l19-21.899c3.103-3.58,3.832-8.643,1.864-12.949
			c-1.968-4.311-6.264-7.071-11.004-7.071h-12.743L192.7,89.463c2.661-3.682,3.023-8.546,0.954-12.583
			c-1.84-3.603-5.347-6.012-9.305-6.495l20.721-29.292l23.544,31.055h-2.118c-4.534,0-8.683,2.526-10.752,6.556
			c-2.077,4.029-1.721,8.874,0.909,12.562l31.211,43.757h-15.747c-5.209,0-9.841,3.341-11.476,8.294
			c-1.643,4.954,0.079,10.397,4.261,13.518l26.953,20.051l-12.902,0.244c-4.754,0.089-9.014,2.948-10.888,7.317
			c-1.868,4.367-1.025,9.425,2.174,12.939l58.563,64.149h-48.616c-6.683,0-12.096,5.419-12.096,12.096v77.465
			c-5.926-0.143-11.992-0.229-18.248-0.254v-64.587c-1.856,0.487-3.832,0.772-5.949,0.772h-2.275v63.814
			c-3.026,0.01-6.053,0.025-8.99,0.056V274.86c0,0,6.431,0,14.371,0c7.929,0,9.272-6.332,3.001-14.143l-74.986-93.399
			c-6.274-7.823-16.376-7.756-22.556,0.127l-73.06,93.11c-6.178,7.881-4.771,14.274,3.168,14.274H56.93v85.244
			c0,1.792,0.34,3.488,0.82,5.118C16.781,376.074,5.043,390.14,1.819,396.259z M130.297,275.834h21.858v32.113h-21.858V275.834z
			 M130.297,322.237h21.858v29.925c-7.678,0.427-14.937,0.935-21.858,1.508V322.237z M94.162,275.834h21.861v32.113H94.162V275.834z
			 M94.162,322.237h21.861v32.113H94.162V322.237z" />
            </g>
        </g>
    </symbol>


</svg>